<svg  fill="none" xmlns="http://www.w3.org/2000/svg">
            <path d="M79.8333 1.86803C84.3667 7.3347 87.3 35.068 83.8333 38.5347C81.0333 41.3347 76.9 40.268 74.5 36.1347C71.7 31.068 66.5 29.7347 61.9667 32.8014C59.9667 34.0014 58.1 36.268 57.8333 37.6014C57.1667 39.868 55.7 40.1347 43.5667 40.1347L30.1 40.1347L27.8333 36.1347C25.0333 31.068 19.8333 29.7347 15.3 32.8014C13.3 34.0014 11.4333 36.268 11.1667 37.6014C10.3667 40.5347 4.23335 41.068 1.70001 38.5347C-0.566658 36.268 -0.566658 4.00137 1.70001 1.7347C4.10001 -0.665302 77.8333 -0.531967 79.8333 1.86803ZM65.4333 11.468V20.1347H70.9C75.7 20.1347 76.2333 19.868 75.4333 17.468C74.3667 14.1347 76.7667 13.868 78.6333 17.068C80.6333 20.8014 81.8333 18.1347 80.7667 12.1347C79.5667 5.06803 77.0333 2.80136 70.6333 2.80136L65.4333 2.80136V11.468ZM44.3667 11.7347L43.9667 20.1347H53.4333L62.7667 20.1347L62.7667 11.468V2.66803L53.7 3.06803L44.7667 3.46803L44.3667 11.7347ZM24.1 11.468V20.1347H32.7667L41.4333 20.1347V11.468V2.80136H32.7667L24.1 2.80136V11.468ZM4.36668 4.40137C2.23335 6.5347 2.23335 16.4014 4.36668 18.5347C5.30001 19.468 9.16668 20.1347 13.0333 20.1347H20.1V11.468L20.1 2.80136H13.0333C9.16668 2.80136 5.30001 3.46803 4.36668 4.40137Z" fill="#02E619"/>
            <path d="M70.2333 33.2014C75.8333 36.8014 74.9 46.0014 68.7667 47.6014C64.2333 48.8014 58.7667 45.068 58.7667 40.8014C58.7667 34.9347 65.8333 30.268 70.2333 33.2014ZM63.4333 40.1347C63.4333 41.2014 64.7667 42.268 66.3667 42.5347C68.7667 42.9347 69.4333 42.268 69.4333 40.1347C69.4333 38.0014 68.7667 37.3347 66.3667 37.7347C64.7667 38.0014 63.4333 39.068 63.4333 40.1347Z" fill="#02E619"/>
            <path d="M25.4333 34.8014C26.9 36.268 28.1 38.668 28.1 40.1347C28.1 41.6014 26.9 44.0014 25.4333 45.468C23.9667 46.9347 21.5667 48.1347 20.1 48.1347C16.6333 48.1347 12.1 43.6014 12.1 40.1347C12.1 38.668 13.3 36.268 14.7667 34.8014C16.2333 33.3347 18.6333 32.1347 20.1 32.1347C21.5667 32.1347 23.9667 33.3347 25.4333 34.8014ZM17.4333 40.1347C17.4333 41.868 18.3667 42.8014 20.1 42.8014C21.8333 42.8014 22.7667 41.868 22.7667 40.1347C22.7667 38.4014 21.8333 37.468 20.1 37.468C18.3667 37.468 17.4333 38.4014 17.4333 40.1347Z" fill="#02E619"/>
</svg>