<svg version="1.2" xmlns="http://www.w3.org/2000/svg" viewBox="0 0 172 172" width="172" height="172"><defs><clipPath clipPathUnits="userSpaceOnUse" id="cp1"><path d="m0 0h172v172h-172z"/></clipPath></defs><style>.a{fill:#5865f2}.b{fill:#fff}</style><g clip-path="url(#cp1)"><path class="a" d="m0 85.8c0-47.4 38.4-85.8 85.8-85.8 47.4 0 85.8 38.4 85.8 85.8 0 47.4-38.4 85.8-85.8 85.8-47.4-0.1-85.8-38.5-85.8-85.8z"/><path fill-rule="evenodd" class="b" d="m140.9 114.1c-8.4 6.3-17.9 11-28 14.1-2.3-3.1-4.3-6.3-6-9.7 3.3-1.2 6.5-2.7 9.5-4.5-0.8-0.6-1.5-1.2-2.3-1.8-17.7 8.4-38.3 8.4-56 0-0.8 0.6-1.5 1.2-2.3 1.8 3 1.8 6.1 3.3 9.4 4.5-1.7 3.4-3.7 6.6-6 9.7-10.1-3-19.5-7.8-28-14.1-1.9-20.7 2-41.6 16.4-63.1 7.2-3.4 14.9-5.8 22.8-7.1q1.6 2.8 3 6c8.4-1.3 16.9-1.3 25.3 0 0.8-1.9 1.9-4.2 2.9-6 7.9 1.3 15.5 3.7 22.8 7 12.5 18.4 18.7 39.2 16.5 63.2zm-63.3-23.9c0-6.2-4.4-11.2-10-11.2-5.5 0-9.9 5.1-9.9 11.2 0 6.1 4.4 11.1 9.9 11.1 5.6 0 9.9-5 10-11.1zm36.7 0c0.1-6.2-4.3-11.2-9.9-11.2-5.5 0-9.9 5.1-9.9 11.2 0 6.1 4.4 11.1 9.9 11.1 5.5 0 9.8-4.9 9.9-11.1z"/></g></svg>