<svg width="65" height="57" viewBox="0 0 78 52" fill="none" xmlns="http://www.w3.org/2000/svg">
<path d="M0 39.0819V39.4298C0.0806818 42.9862 1.37159 45.9241 3.87273 48.2435C6.29318 50.6402 9.35909 51.8772 13.0705 51.9545C16.1364 51.8772 18.7989 50.9881 21.058 49.2872C23.3977 47.5863 24.9307 45.3056 25.6568 42.445L26.1409 40.8214H51.3136L51.7977 42.445C52.5239 45.3056 54.0568 47.5863 56.3966 49.2872C58.6557 50.9881 61.3182 51.8772 64.3841 51.9545C68.0955 51.8772 71.1614 50.6402 73.5818 48.2435C76.083 45.9241 77.3739 42.9862 77.4545 39.4298V39.0819C77.4545 38.3861 77.3739 37.6902 77.2125 36.9944L73.3398 14.8442C72.775 11.8289 71.5648 9.23894 69.7091 7.07417C67.8534 4.83208 65.3926 3.32447 62.3267 2.55134C56.7597 1.08239 48.8932 0.23194 38.7273 0C28.5614 0.23194 20.6949 1.08239 15.1278 2.55134C12.0619 3.32447 9.60114 4.83208 7.74545 7.07417C5.88977 9.23894 4.67955 11.8289 4.11477 14.8442L0.242045 36.9944C0.0806818 37.6902 0 38.3861 0 39.0819ZM52.2818 32.4716C50.9102 32.4716 49.7807 32.0077 48.8932 31.08C47.925 30.2295 47.4409 29.1471 47.4409 27.8328C47.4409 26.5185 47.925 25.4361 48.8932 24.5856C49.7807 23.6579 50.9102 23.194 52.2818 23.194C53.6534 23.194 54.783 23.6579 55.6705 24.5856C56.6386 25.4361 57.1227 26.5185 57.1227 27.8328C57.1227 29.1471 56.6386 30.2295 55.6705 31.08C54.783 32.0077 53.6534 32.4716 52.2818 32.4716ZM64.8682 16.6997C64.8682 18.014 64.3841 19.0964 63.4159 19.9468C62.5284 20.8746 61.3989 21.3385 60.0273 21.3385C58.6557 21.3385 57.5261 20.8746 56.6386 19.9468C55.6705 19.0964 55.1864 18.014 55.1864 16.6997C55.1864 15.3853 55.6705 14.303 56.6386 13.4525C57.5261 12.5248 58.6557 12.0609 60.0273 12.0609C61.3989 12.0609 62.5284 12.5248 63.4159 13.4525C64.3841 14.303 64.8682 15.3853 64.8682 16.6997ZM26.1409 15.7719V19.483H30.0136C31.7886 19.6376 32.7568 20.5653 32.9182 22.2662C32.7568 23.9671 31.7886 24.8949 30.0136 25.0495H26.1409V28.7606C25.9795 30.4614 25.0114 31.3892 23.2364 31.5438C21.4614 31.3892 20.4932 30.4614 20.3318 28.7606V25.0495H16.4591C14.6841 24.8949 13.7159 23.9671 13.5545 22.2662C13.7159 20.5653 14.6841 19.6376 16.4591 19.483H20.3318V15.7719C20.4932 14.071 21.4614 13.1433 23.2364 12.9886C25.0114 13.1433 25.9795 14.071 26.1409 15.7719Z" fill="black"/>
</svg>
