<svg width="65" height="57" viewBox="0 0 57 67" fill="none" xmlns="http://www.w3.org/2000/svg">
<path d="M32.0081 6.79685C17.6501 19.2389 6.36884 40.1127 1.24098 63.0431L0.599998 66.4363H7.39441C12.3941 66.4363 14.4452 66.025 15.0862 64.8939C15.9836 62.8374 20.9832 62.8374 20.9832 64.8939C20.9832 66.025 22.5216 66.4363 27.7777 66.4363H34.4439V50.7039C34.5721 27.465 39.059 14.8173 50.853 4.94597L56.1091 0.627253H47.6481H39.1871L32.0081 6.79685ZM42.1357 6.79685C39.3153 9.05904 36.495 10.9099 35.854 10.9099C35.0849 10.9099 37.136 8.85339 40.2127 6.28272C43.2894 3.81488 46.1098 1.964 46.4943 2.16965C46.7507 2.47813 44.8278 4.53467 42.1357 6.79685ZM33.8029 15.4343C33.8029 15.64 32.6491 17.9021 31.239 20.5756C28.8032 24.8944 26.1111 26.8481 26.1111 24.2774C26.1111 22.3237 31.239 15.023 32.5209 15.023C33.2901 15.023 33.8029 15.2286 33.8029 15.4343ZM26.1111 30.9611C26.1111 31.1668 25.4701 33.7374 24.7009 36.6166C23.8036 40.0099 22.6498 41.7579 21.3678 41.7579C19.9577 41.7579 19.5731 41.0381 20.2141 39.0844C20.7269 37.542 21.496 35.0742 21.8806 33.429C22.2652 31.7837 23.419 30.447 24.3164 30.447C25.3419 30.447 26.1111 30.6526 26.1111 30.9611ZM22.2652 48.1332C22.2652 48.853 21.8806 51.218 21.496 53.2745C20.855 56.2565 20.0859 57.1819 18.1629 57.1819C16.1118 57.1819 15.7272 56.6678 16.3682 54.8169C16.7528 53.583 17.1373 51.3208 17.1373 49.6756C17.1373 47.6191 17.7783 46.8993 19.7013 46.8993C21.1114 46.8993 22.2652 47.5162 22.2652 48.1332Z" fill="black"/>
</svg>
